<svg viewBox="0 0 1262 240" version="1.1" xmlns="http://www.w3.org/2000/svg" style="fill-rule:evenodd;clip-rule:evenodd;">
    <g>
        <path d="M51.547,69.552c4.923,-1.627 9.552,-3.133 13.885,-4.516c4.334,-1.384 8.901,-2.696 13.703,-3.937c4.801,-1.241 9.399,-2.228 13.794,-2.96c3.377,-0.57 6.836,-0.855 10.376,-0.855c5.9,0 9.765,0.163 11.596,0.489c2.767,0.528 5.381,1.383 7.843,2.563c2.462,1.18 4.659,2.757 6.592,4.73c1.933,1.974 3.51,4.303 4.73,6.989c0.488,1.098 0.733,2.258 0.733,3.479c-0,4.557 -2.493,10.172 -7.477,16.845c-4.985,6.673 -9.99,12.492 -15.015,17.456c-5.025,4.965 -8.779,8.525 -11.261,10.681l10.987,38.514l-15.992,11.535l-28.015,-80.017c-0.081,0 -0.468,0.387 -1.159,1.16c-0.692,0.773 -1.597,1.78 -2.716,3.021c-1.119,1.241 -1.821,2.004 -2.106,2.289c-0.122,-0 -0.519,-0.875 -1.19,-2.625c-0.672,-1.749 -1.567,-4.18 -2.686,-7.293c-1.119,-3.113 -2.38,-6.572 -3.784,-10.376c-1.404,-3.805 -2.35,-6.195 -2.838,-7.172Zm39.49,16.968l5.004,18.005c2.523,-2.563 5.656,-6.063 9.4,-10.498c3.743,-4.435 5.615,-7.649 5.615,-9.643c0,-0.773 -0.325,-1.221 -0.977,-1.343c-1.831,-0.407 -3.641,-0.61 -5.432,-0.61c-5.371,-0 -9.908,1.363 -13.61,4.089Z" style="fill:#3b59a2;fill-rule:nonzero;stroke:#3b59a2;stroke-width:25px;" />
        <path d="M180.636,100.436c2.889,1.546 5.239,3.632 7.049,6.256c1.811,2.625 3.134,5.575 3.968,8.85c0.834,3.276 1.251,6.683 1.251,10.223c-0,2.93 -0.234,5.758 -0.702,8.484c-0.468,2.727 -1.109,5.229 -1.923,7.508c-0.813,2.278 -1.77,4.211 -2.868,5.798c-2.564,3.825 -5.31,7.121 -8.24,9.888c-2.93,2.767 -5.92,4.994 -8.972,6.683c-3.052,1.689 -6.073,2.93 -9.064,3.723c-2.99,0.794 -5.951,1.19 -8.88,1.19c-3.459,0 -6.745,-0.539 -9.858,-1.617c-3.112,-1.078 -5.767,-2.492 -7.965,-4.242c-3.621,-3.011 -6.449,-7.07 -8.483,-12.177c-2.035,-5.106 -3.052,-10.508 -3.052,-16.204c-0,-9.807 2.828,-17.721 8.484,-23.743c4.842,-5.168 9.847,-9.064 15.014,-11.688c5.168,-2.625 10.458,-3.937 15.869,-3.937c3.174,0 6.226,0.397 9.156,1.19c2.929,0.794 6.001,2.065 9.216,3.815Zm-3.601,10.254c-0.692,3.092 -2.187,5.818 -4.486,8.179c-2.299,2.36 -4.547,3.54 -6.745,3.54c-1.098,-0 -2.075,-0.285 -2.929,-0.855c-1.221,-0.977 -1.831,-2.685 -1.831,-5.127c-0,-1.872 0.62,-3.723 1.861,-5.554c1.241,-1.831 3.205,-3.276 5.89,-4.334c-2.685,0 -5.279,0.509 -7.782,1.526c-2.502,1.018 -4.649,2.33 -6.439,3.937c-1.79,1.607 -3.225,3.418 -4.303,5.432c-1.078,2.014 -1.617,4.039 -1.617,6.073c-0,3.784 1.749,6.795 5.249,9.033c3.255,2.076 6.347,3.113 9.277,3.113c2.889,0 5.452,-0.966 7.69,-2.899c2.238,-1.933 3.947,-4.415 5.127,-7.446c1.18,-3.032 1.77,-6.033 1.77,-9.003c0,-2.034 -0.244,-3.906 -0.732,-5.615Z" style="fill:#3b59a2;fill-rule:nonzero;stroke:#3b59a2;stroke-width:25px;" />
        <path d="M182.772,64.547l31.006,-13l4.516,70.495l25.513,-13.977l26.489,3.968l-34.546,26.489l32.532,24.536l1.465,24.475l-47.974,-34.485l1.526,29.968l-29.052,0.55l-5.493,-106.018l-8.973,2.014l2.991,-15.015Z" style="fill:#3b59a2;fill-rule:nonzero;stroke:#3b59a2;stroke-width:25px;" />
        <path d="M312.777,132.784l14.709,17.762c-1.18,3.418 -3.977,6.551 -8.392,9.399c-4.415,2.848 -9.664,5.096 -15.747,6.744c-6.083,1.648 -12.156,2.472 -18.219,2.472c-5.371,0 -10.163,-0.712 -14.374,-2.136c-4.211,-1.424 -7.456,-3.581 -9.735,-6.47c-3.947,-4.964 -5.92,-11.311 -5.92,-19.043c-0,-6.103 1.108,-12.115 3.326,-18.035c2.218,-5.921 4.567,-10.061 7.049,-12.421c2.971,-2.808 6.196,-5.147 9.675,-7.019c3.479,-1.872 7.09,-3.276 10.833,-4.211c3.744,-0.936 7.589,-1.404 11.536,-1.404c5.167,-0 10.081,0.824 14.74,2.472c4.659,1.648 8.738,4.038 12.237,7.171l-33.508,39.978c2.97,0 5.788,-0.62 8.453,-1.861c2.666,-1.241 5.117,-3.011 7.355,-5.31c2.238,-2.299 4.232,-4.995 5.982,-8.088Zm-16.907,-14.221c-1.994,-1.017 -4.028,-1.526 -6.104,-1.526c-2.197,0 -4.323,0.448 -6.378,1.343c-2.055,0.895 -3.509,1.953 -4.364,3.174c-2.523,3.255 -3.784,6.836 -3.784,10.742c0,1.424 0.142,2.787 0.427,4.09c0.285,1.302 0.773,3.092 1.465,5.371l18.738,-23.194Z" style="fill:#3b59a2;fill-rule:nonzero;stroke:#3b59a2;stroke-width:25px;" />
        <path d="M375.521,86.032l3.479,82.031l-3.724,-0c-2.441,-0 -5.533,-0.082 -9.277,-0.244c-3.743,-0.123 -7.141,-0.377 -10.193,-0.763c-3.052,-0.387 -5.31,-0.885 -6.775,-1.496l-4.028,-78.552l-38.025,0.55l0.55,-24.048l97.472,-6.47l1.526,26.489l-31.005,2.503Z" style="fill:#3b59a2;fill-rule:nonzero;stroke:#3b59a2;stroke-width:25px;" />
        <path d="M444.002,132.784l14.709,17.762c-1.18,3.418 -3.977,6.551 -8.392,9.399c-4.415,2.848 -9.664,5.096 -15.747,6.744c-6.083,1.648 -12.156,2.472 -18.219,2.472c-5.371,0 -10.162,-0.712 -14.374,-2.136c-4.211,-1.424 -7.456,-3.581 -9.735,-6.47c-3.947,-4.964 -5.92,-11.311 -5.92,-19.043c-0,-6.103 1.109,-12.115 3.326,-18.035c2.218,-5.921 4.568,-10.061 7.05,-12.421c2.97,-2.808 6.195,-5.147 9.674,-7.019c3.479,-1.872 7.09,-3.276 10.833,-4.211c3.744,-0.936 7.589,-1.404 11.536,-1.404c5.168,-0 10.081,0.824 14.74,2.472c4.659,1.648 8.738,4.038 12.237,7.171l-33.508,39.978c2.971,0 5.788,-0.62 8.454,-1.861c2.665,-1.241 5.116,-3.011 7.354,-5.31c2.238,-2.299 4.232,-4.995 5.982,-8.088Zm-16.907,-14.221c-1.994,-1.017 -4.028,-1.526 -6.103,-1.526c-2.198,0 -4.324,0.448 -6.379,1.343c-2.054,0.895 -3.509,1.953 -4.364,3.174c-2.522,3.255 -3.784,6.836 -3.784,10.742c0,1.424 0.143,2.787 0.427,4.09c0.285,1.302 0.774,3.092 1.465,5.371l18.738,-23.194Z" style="fill:#3b59a2;fill-rule:nonzero;stroke:#3b59a2;stroke-width:25px;" />
        <path d="M490.755,106.784c-2.238,0.284 -4.446,0.996 -6.623,2.136c-2.177,1.139 -4.038,2.482 -5.584,4.028c-1.547,1.546 -2.757,3.245 -3.632,5.097c-0.875,1.851 -1.312,3.672 -1.312,5.462c-0,3.703 1.749,6.714 5.249,9.033c3.092,2.076 6.225,3.113 9.399,3.113c0.61,0 1.445,-0.081 2.503,-0.244l-0,-13c-1.099,-0 -2.076,-0.285 -2.93,-0.855c-1.221,-0.977 -1.831,-2.848 -1.831,-5.615c-0,-3.988 1.587,-7.04 4.761,-9.155Zm0.488,-10.743l25.512,-11.474l0.489,34.118c0.325,2.116 0.488,4.517 0.488,7.203c-0,2.36 -0.081,4.109 -0.244,5.249l0.732,37.414l-27.465,1.465l-0,-3.723c-4.476,1.831 -8.993,2.746 -13.55,2.746c-3.5,0 -6.785,-0.529 -9.857,-1.587c-3.072,-1.058 -5.727,-2.482 -7.965,-4.272c-3.622,-3.011 -6.45,-7.07 -8.484,-12.177c-2.035,-5.106 -3.052,-10.508 -3.052,-16.204c-0,-9.807 2.828,-17.721 8.484,-23.743c4.883,-5.127 9.918,-9.013 15.106,-11.658c5.188,-2.645 10.488,-3.967 15.9,-3.967c1.505,0 2.644,0.041 3.418,0.122l0.488,0.488Z" style="fill:#3b59a2;fill-rule:nonzero;stroke:#3b59a2;stroke-width:25px;" />
        <path d="M567.964,96.53c10.538,-3.337 18.371,-5.005 23.498,-5.005c4.069,-0 7.569,0.834 10.498,2.502c3.622,2.075 7.528,5.615 11.719,10.62c4.191,5.005 6.795,9.644 7.812,13.916c2.157,8.667 3.235,16.236 3.235,22.705c0,3.418 -0.224,7.009 -0.671,10.773c-0.448,3.764 -1.139,8.596 -2.075,14.496l-25.513,1.526c0.081,-2.035 0.122,-4.964 0.122,-8.789c0,-15.951 -2.197,-29.521 -6.592,-40.711c-0.813,-1.993 -1.77,-3.56 -2.868,-4.699c-1.099,-1.14 -2.075,-1.709 -2.93,-1.709c-0.895,-0 -1.343,0.63 -1.343,1.892c0,0.732 0.082,1.363 0.244,1.892c0.285,0.651 0.57,1.526 0.855,2.624c2.197,8.83 3.296,16.398 3.296,22.705c-0,3.093 -0.204,6.338 -0.611,9.735c-0.406,3.398 -1.119,8.576 -2.136,15.534l-25.512,1.526c0.081,-2.035 0.122,-4.964 0.122,-8.789c-0,-15.992 -2.218,-29.562 -6.653,-40.711c-0.529,-1.302 -0.936,-2.675 -1.221,-4.12c-0.285,-1.444 -0.488,-2.166 -0.61,-2.166c-0.163,-0 -0.631,0.956 -1.404,2.868c-0.773,1.913 -1.607,3.886 -2.502,5.921c-0.611,1.424 -1.109,3.052 -1.496,4.883c-0.386,1.831 -0.671,3.885 -0.854,6.164c-0.183,2.279 -0.275,4.964 -0.275,8.057c0,6.266 0.366,14.221 1.099,23.864l-29.968,3.479c-0.489,-3.58 -0.936,-7.141 -1.343,-10.681c-0.407,-3.54 -0.722,-6.825 -0.946,-9.857c-0.224,-3.031 -0.336,-6.297 -0.336,-9.796c0,-1.506 0.081,-3.682 0.244,-6.531l-1.098,-35.583l23.986,-3.052l3.479,4.028c6.429,-2.075 11.678,-3.112 15.747,-3.112c4.517,-0 8.85,1.2 13.001,3.601Z" style="fill:#3b59a2;fill-rule:nonzero;stroke:#3b59a2;stroke-width:25px;" />
    </g>
    <g>
        <path d="M744.342,122.283c9.358,3.54 14.038,10.091 14.038,19.653c-0,7.609 -2.727,13.57 -8.179,17.884c-2.767,2.156 -5.971,3.712 -9.613,4.669c-3.642,0.956 -8.148,1.434 -13.519,1.434l-56.946,0l-0,-1.953c1.465,-0.407 2.482,-0.936 3.052,-1.587c0.569,-0.651 0.854,-1.607 0.854,-2.869l0,-70.495c0,-1.261 -0.285,-2.218 -0.854,-2.869c-0.57,-0.651 -1.587,-1.18 -3.052,-1.587l-0,-1.953l56.396,0c5.412,0 9.766,0.407 13.062,1.221c3.296,0.814 6.185,2.197 8.667,4.15c4.923,3.866 7.385,9.44 7.385,16.724c-0,8.138 -3.764,13.997 -11.291,17.578Zm-52.124,-6.531l31.921,0c4.842,0 8.219,-0.712 10.132,-2.136c2.156,-1.628 3.235,-4.15 3.235,-7.568c-0,-3.5 -1.018,-5.992 -3.052,-7.477c-2.035,-1.485 -5.473,-2.228 -10.315,-2.228l-31.921,0l-0,19.409Zm-0,36.438l30.883,0c5.738,0 9.868,-0.793 12.39,-2.38c2.889,-1.831 4.334,-4.822 4.334,-8.972c-0,-4.11 -1.445,-7.101 -4.334,-8.972c-2.482,-1.587 -6.612,-2.381 -12.39,-2.381l-30.883,0l-0,22.705Z" style="fill:#3b59a2;fill-rule:nonzero;stroke:#3b59a2;stroke-width:25px;" />
        <path d="M841.082,103.789l-0,36.194c-0,8.26 -1.628,14.323 -4.883,18.189c-5.249,6.144 -15.137,9.216 -29.663,9.216c-9.725,-0 -17.578,-1.485 -23.559,-4.456c-4.313,-2.156 -7.264,-5.228 -8.85,-9.216c-1.465,-3.662 -2.198,-8.24 -2.198,-13.733l0,-36.194c0,-1.261 -0.285,-2.217 -0.854,-2.868c-0.57,-0.651 -1.587,-1.201 -3.052,-1.648l0,-1.709l24.17,-0l-0,1.709c-1.483,0.407 -2.504,0.946 -3.065,1.617c-0.561,0.672 -0.841,1.638 -0.841,2.899l-0,32.898c-0,3.825 0.335,6.755 1.007,8.789c0.671,2.035 1.841,3.703 3.509,5.005c3.337,2.645 8.159,3.967 14.466,3.967c6.307,0 11.128,-1.322 14.465,-3.967c1.627,-1.302 2.767,-2.97 3.418,-5.005c0.651,-2.034 0.976,-4.964 0.976,-8.789l0,-32.898c0,-1.261 -0.274,-2.217 -0.824,-2.868c-0.549,-0.651 -1.576,-1.201 -3.082,-1.648l0,-1.709l22.766,-0l0,1.709c-1.465,0.407 -2.482,0.946 -3.052,1.617c-0.569,0.672 -0.854,1.638 -0.854,2.899Z" style="fill:#3b59a2;fill-rule:nonzero;stroke:#3b59a2;stroke-width:25px;" />
        <path d="M875.933,103.786l-0,55.855c-0,1.26 0.285,2.226 0.854,2.896c0.57,0.671 1.587,1.23 3.052,1.677l0,1.709l-24.17,0l0,-1.709c1.424,-0.366 2.432,-0.895 3.022,-1.587c0.59,-0.692 0.885,-1.668 0.885,-2.93l-0,-55.908c-0,-1.261 -0.285,-2.217 -0.855,-2.868c-0.57,-0.651 -1.587,-1.201 -3.052,-1.648l0,-1.709l24.17,-0l0,1.709c-1.465,0.406 -2.482,0.945 -3.052,1.615c-0.569,0.671 -0.854,1.637 -0.854,2.898Z" style="fill:#3b59a2;fill-rule:nonzero;stroke:#3b59a2;stroke-width:25px;" />
        <path d="M912.127,153.533l38.269,-0c1.302,-0 2.278,-0.28 2.929,-0.841c0.651,-0.561 1.201,-1.583 1.648,-3.065l1.648,-0l0,20.202l-1.648,0c-0.407,-1.465 -0.946,-2.482 -1.617,-3.051c-0.672,-0.57 -1.658,-0.855 -2.96,-0.855l-58.533,0l0,-1.709c1.424,-0.366 2.431,-0.895 3.021,-1.587c0.59,-0.692 0.885,-1.668 0.885,-2.93l0,-55.908c0,-1.261 -0.285,-2.217 -0.854,-2.868c-0.57,-0.651 -1.587,-1.201 -3.052,-1.648l0,-1.709l24.17,-0l-0,1.709c-1.465,0.407 -2.482,0.946 -3.052,1.617c-0.57,0.672 -0.854,1.638 -0.854,2.899l-0,49.744Z" style="fill:#3b59a2;fill-rule:nonzero;stroke:#3b59a2;stroke-width:25px;" />
        <path d="M967.546,159.697l0,-55.908c0,-1.261 -0.284,-2.217 -0.854,-2.868c-0.57,-0.651 -1.587,-1.201 -3.052,-1.648l0,-1.709l40.1,-0c8.342,-0 14.913,1.037 19.714,3.113c6.755,2.929 11.617,7.771 14.588,14.526c2.075,4.72 3.113,10.233 3.113,16.54c-0,11.678 -3.479,20.529 -10.437,26.551c-3.134,2.685 -6.826,4.628 -11.078,5.828c-4.252,1.201 -9.552,1.801 -15.9,1.801l-40.1,0l0,-1.709c1.424,-0.366 2.431,-0.895 3.021,-1.587c0.59,-0.692 0.885,-1.668 0.885,-2.93Zm16.358,-6.164l17.456,-0c8.016,-0 13.834,-1.831 17.456,-5.493c3.784,-3.825 5.676,-9.257 5.676,-16.297c-0,-7.039 -1.892,-12.471 -5.676,-16.296c-1.872,-1.912 -4.191,-3.306 -6.958,-4.181c-2.767,-0.875 -6.267,-1.312 -10.498,-1.312l-17.456,-0l-0,43.579Z" style="fill:#3b59a2;fill-rule:nonzero;stroke:#3b59a2;stroke-width:25px;" />
        <path d="M1071.86,136.87l0,16.663l43.396,-0c1.261,-0 2.228,-0.28 2.899,-0.841c0.672,-0.561 1.211,-1.583 1.618,-3.065l1.709,-0l-0,20.202l-1.709,0c-0.367,-1.424 -0.896,-2.431 -1.587,-3.021c-0.692,-0.59 -1.669,-0.885 -2.93,-0.885l-63.659,0l-0,-1.709c1.424,-0.366 2.431,-0.895 3.021,-1.587c0.59,-0.692 0.885,-1.668 0.885,-2.93l-0,-55.908c-0,-1.261 -0.285,-2.217 -0.855,-2.868c-0.569,-0.651 -1.587,-1.201 -3.051,-1.648l-0,-1.709l61.767,-0c1.302,-0 2.289,-0.285 2.96,-0.855c0.671,-0.569 1.211,-1.587 1.618,-3.051l1.647,-0l0,20.202l-1.647,0c-0.407,-1.482 -0.947,-2.504 -1.618,-3.065c-0.671,-0.561 -1.658,-0.841 -2.96,-0.841l-41.504,-0l0,15.015l25.757,-0c1.261,-0 2.228,-0.285 2.899,-0.855c0.671,-0.57 1.231,-1.587 1.679,-3.052l1.647,0l0,19.715l-1.647,-0c-0.407,-1.443 -0.947,-2.455 -1.618,-3.035c-0.671,-0.581 -1.658,-0.872 -2.96,-0.872l-25.757,0Z" style="fill:#3b59a2;fill-rule:nonzero;stroke:#3b59a2;stroke-width:25px;" />
        <path d="M1152.06,137.847l0,21.8c0,1.259 0.285,2.223 0.855,2.893c0.569,0.67 1.586,1.228 3.051,1.674l0,1.709l-24.17,0l0,-1.709c1.425,-0.366 2.432,-0.895 3.022,-1.587c0.59,-0.692 0.885,-1.668 0.885,-2.93l-0,-55.908c-0,-1.261 -0.285,-2.217 -0.855,-2.868c-0.569,-0.651 -1.587,-1.201 -3.052,-1.648l0,-1.709l44.8,-0c5.819,-0 10.254,0.295 13.306,0.885c3.051,0.59 5.778,1.658 8.178,3.204c4.924,3.215 7.386,8.464 7.386,15.747c-0,5.534 -1.516,9.857 -4.547,12.97c-3.032,3.113 -7.925,5.361 -14.679,6.745l12.939,18.026c2.36,3.329 4.242,5.592 5.646,6.789c1.404,1.198 3.001,1.959 4.791,2.284l0,1.709l-28.747,0l-0,-1.709c2.119,-0.568 3.178,-1.482 3.178,-2.74c0,-0.893 -0.652,-2.253 -1.958,-4.08l-13.655,-19.547l-16.374,-0Zm0,-12.39l24.658,-0c3.744,-0 6.511,-0.407 8.301,-1.221c2.523,-1.098 3.784,-3.275 3.784,-6.531c0,-2.889 -0.885,-4.903 -2.655,-6.042c-1.77,-1.139 -4.913,-1.709 -9.43,-1.709l-24.658,-0l0,15.503Z" style="fill:#3b59a2;fill-rule:nonzero;stroke:#3b59a2;stroke-width:25px;" />
    </g>
    <g>
        <path d="M51.547,69.552c4.923,-1.627 9.552,-3.133 13.885,-4.516c4.334,-1.384 8.901,-2.696 13.703,-3.937c4.801,-1.241 9.399,-2.228 13.794,-2.96c3.377,-0.57 6.836,-0.855 10.376,-0.855c5.9,0 9.765,0.163 11.596,0.489c2.767,0.528 5.381,1.383 7.843,2.563c2.462,1.18 4.659,2.757 6.592,4.73c1.933,1.974 3.51,4.303 4.73,6.989c0.488,1.098 0.733,2.258 0.733,3.479c-0,4.557 -2.493,10.172 -7.477,16.845c-4.985,6.673 -9.99,12.492 -15.015,17.456c-5.025,4.965 -8.779,8.525 -11.261,10.681l10.987,38.514l-15.992,11.535l-28.015,-80.017c-0.081,0 -0.468,0.387 -1.159,1.16c-0.692,0.773 -1.597,1.78 -2.716,3.021c-1.119,1.241 -1.821,2.004 -2.106,2.289c-0.122,-0 -0.519,-0.875 -1.19,-2.625c-0.672,-1.749 -1.567,-4.18 -2.686,-7.293c-1.119,-3.113 -2.38,-6.572 -3.784,-10.376c-1.404,-3.805 -2.35,-6.195 -2.838,-7.172Zm39.49,16.968l5.004,18.005c2.523,-2.563 5.656,-6.063 9.4,-10.498c3.743,-4.435 5.615,-7.649 5.615,-9.643c0,-0.773 -0.325,-1.221 -0.977,-1.343c-1.831,-0.407 -3.641,-0.61 -5.432,-0.61c-5.371,-0 -9.908,1.363 -13.61,4.089Z" style="fill:#f000a2;fill-rule:nonzero;" />
        <path d="M180.636,100.436c2.889,1.546 5.239,3.632 7.049,6.256c1.811,2.625 3.134,5.575 3.968,8.85c0.834,3.276 1.251,6.683 1.251,10.223c-0,2.93 -0.234,5.758 -0.702,8.484c-0.468,2.727 -1.109,5.229 -1.923,7.508c-0.813,2.278 -1.77,4.211 -2.868,5.798c-2.564,3.825 -5.31,7.121 -8.24,9.888c-2.93,2.767 -5.92,4.994 -8.972,6.683c-3.052,1.689 -6.073,2.93 -9.064,3.723c-2.99,0.794 -5.951,1.19 -8.88,1.19c-3.459,0 -6.745,-0.539 -9.858,-1.617c-3.112,-1.078 -5.767,-2.492 -7.965,-4.242c-3.621,-3.011 -6.449,-7.07 -8.483,-12.177c-2.035,-5.106 -3.052,-10.508 -3.052,-16.204c-0,-9.807 2.828,-17.721 8.484,-23.743c4.842,-5.168 9.847,-9.064 15.014,-11.688c5.168,-2.625 10.458,-3.937 15.869,-3.937c3.174,0 6.226,0.397 9.156,1.19c2.929,0.794 6.001,2.065 9.216,3.815Zm-3.601,10.254c-0.692,3.092 -2.187,5.818 -4.486,8.179c-2.299,2.36 -4.547,3.54 -6.745,3.54c-1.098,-0 -2.075,-0.285 -2.929,-0.855c-1.221,-0.977 -1.831,-2.685 -1.831,-5.127c-0,-1.872 0.62,-3.723 1.861,-5.554c1.241,-1.831 3.205,-3.276 5.89,-4.334c-2.685,0 -5.279,0.509 -7.782,1.526c-2.502,1.018 -4.649,2.33 -6.439,3.937c-1.79,1.607 -3.225,3.418 -4.303,5.432c-1.078,2.014 -1.617,4.039 -1.617,6.073c-0,3.784 1.749,6.795 5.249,9.033c3.255,2.076 6.347,3.113 9.277,3.113c2.889,0 5.452,-0.966 7.69,-2.899c2.238,-1.933 3.947,-4.415 5.127,-7.446c1.18,-3.032 1.77,-6.033 1.77,-9.003c0,-2.034 -0.244,-3.906 -0.732,-5.615Z" style="fill:#f000a2;fill-rule:nonzero;" />
        <path d="M182.772,64.547l31.006,-13l4.516,70.495l25.513,-13.977l26.489,3.968l-34.546,26.489l32.532,24.536l1.465,24.475l-47.974,-34.485l1.526,29.968l-29.052,0.55l-5.493,-106.018l-8.973,2.014l2.991,-15.015Z" style="fill:#f000a2;fill-rule:nonzero;" />
        <path d="M312.777,132.784l14.709,17.762c-1.18,3.418 -3.977,6.551 -8.392,9.399c-4.415,2.848 -9.664,5.096 -15.747,6.744c-6.083,1.648 -12.156,2.472 -18.219,2.472c-5.371,0 -10.163,-0.712 -14.374,-2.136c-4.211,-1.424 -7.456,-3.581 -9.735,-6.47c-3.947,-4.964 -5.92,-11.311 -5.92,-19.043c-0,-6.103 1.108,-12.115 3.326,-18.035c2.218,-5.921 4.567,-10.061 7.049,-12.421c2.971,-2.808 6.196,-5.147 9.675,-7.019c3.479,-1.872 7.09,-3.276 10.833,-4.211c3.744,-0.936 7.589,-1.404 11.536,-1.404c5.167,-0 10.081,0.824 14.74,2.472c4.659,1.648 8.738,4.038 12.237,7.171l-33.508,39.978c2.97,0 5.788,-0.62 8.453,-1.861c2.666,-1.241 5.117,-3.011 7.355,-5.31c2.238,-2.299 4.232,-4.995 5.982,-8.088Zm-16.907,-14.221c-1.994,-1.017 -4.028,-1.526 -6.104,-1.526c-2.197,0 -4.323,0.448 -6.378,1.343c-2.055,0.895 -3.509,1.953 -4.364,3.174c-2.523,3.255 -3.784,6.836 -3.784,10.742c0,1.424 0.142,2.787 0.427,4.09c0.285,1.302 0.773,3.092 1.465,5.371l18.738,-23.194Z" style="fill:#f000a2;fill-rule:nonzero;" />
        <path d="M375.521,86.032l3.479,82.031l-3.724,-0c-2.441,-0 -5.533,-0.082 -9.277,-0.244c-3.743,-0.123 -7.141,-0.377 -10.193,-0.763c-3.052,-0.387 -5.31,-0.885 -6.775,-1.496l-4.028,-78.552l-38.025,0.55l0.55,-24.048l97.472,-6.47l1.526,26.489l-31.005,2.503Z" style="fill:#18e9f0;fill-rule:nonzero;" />
        <path d="M444.002,132.784l14.709,17.762c-1.18,3.418 -3.977,6.551 -8.392,9.399c-4.415,2.848 -9.664,5.096 -15.747,6.744c-6.083,1.648 -12.156,2.472 -18.219,2.472c-5.371,0 -10.162,-0.712 -14.374,-2.136c-4.211,-1.424 -7.456,-3.581 -9.735,-6.47c-3.947,-4.964 -5.92,-11.311 -5.92,-19.043c-0,-6.103 1.109,-12.115 3.326,-18.035c2.218,-5.921 4.568,-10.061 7.05,-12.421c2.97,-2.808 6.195,-5.147 9.674,-7.019c3.479,-1.872 7.09,-3.276 10.833,-4.211c3.744,-0.936 7.589,-1.404 11.536,-1.404c5.168,-0 10.081,0.824 14.74,2.472c4.659,1.648 8.738,4.038 12.237,7.171l-33.508,39.978c2.971,0 5.788,-0.62 8.454,-1.861c2.665,-1.241 5.116,-3.011 7.354,-5.31c2.238,-2.299 4.232,-4.995 5.982,-8.088Zm-16.907,-14.221c-1.994,-1.017 -4.028,-1.526 -6.103,-1.526c-2.198,0 -4.324,0.448 -6.379,1.343c-2.054,0.895 -3.509,1.953 -4.364,3.174c-2.522,3.255 -3.784,6.836 -3.784,10.742c0,1.424 0.143,2.787 0.427,4.09c0.285,1.302 0.774,3.092 1.465,5.371l18.738,-23.194Z" style="fill:#18e9f0;fill-rule:nonzero;" />
        <path d="M490.755,106.784c-2.238,0.284 -4.446,0.996 -6.623,2.136c-2.177,1.139 -4.038,2.482 -5.584,4.028c-1.547,1.546 -2.757,3.245 -3.632,5.097c-0.875,1.851 -1.312,3.672 -1.312,5.462c-0,3.703 1.749,6.714 5.249,9.033c3.092,2.076 6.225,3.113 9.399,3.113c0.61,0 1.445,-0.081 2.503,-0.244l-0,-13c-1.099,-0 -2.076,-0.285 -2.93,-0.855c-1.221,-0.977 -1.831,-2.848 -1.831,-5.615c-0,-3.988 1.587,-7.04 4.761,-9.155Zm0.488,-10.743l25.512,-11.474l0.489,34.118c0.325,2.116 0.488,4.517 0.488,7.203c-0,2.36 -0.081,4.109 -0.244,5.249l0.732,37.414l-27.465,1.465l-0,-3.723c-4.476,1.831 -8.993,2.746 -13.55,2.746c-3.5,0 -6.785,-0.529 -9.857,-1.587c-3.072,-1.058 -5.727,-2.482 -7.965,-4.272c-3.622,-3.011 -6.45,-7.07 -8.484,-12.177c-2.035,-5.106 -3.052,-10.508 -3.052,-16.204c-0,-9.807 2.828,-17.721 8.484,-23.743c4.883,-5.127 9.918,-9.013 15.106,-11.658c5.188,-2.645 10.488,-3.967 15.9,-3.967c1.505,0 2.644,0.041 3.418,0.122l0.488,0.488Z" style="fill:#18e9f0;fill-rule:nonzero;" />
        <path d="M567.964,96.53c10.538,-3.337 18.371,-5.005 23.498,-5.005c4.069,-0 7.569,0.834 10.498,2.502c3.622,2.075 7.528,5.615 11.719,10.62c4.191,5.005 6.795,9.644 7.812,13.916c2.157,8.667 3.235,16.236 3.235,22.705c0,3.418 -0.224,7.009 -0.671,10.773c-0.448,3.764 -1.139,8.596 -2.075,14.496l-25.513,1.526c0.081,-2.035 0.122,-4.964 0.122,-8.789c0,-15.951 -2.197,-29.521 -6.592,-40.711c-0.813,-1.993 -1.77,-3.56 -2.868,-4.699c-1.099,-1.14 -2.075,-1.709 -2.93,-1.709c-0.895,-0 -1.343,0.63 -1.343,1.892c0,0.732 0.082,1.363 0.244,1.892c0.285,0.651 0.57,1.526 0.855,2.624c2.197,8.83 3.296,16.398 3.296,22.705c-0,3.093 -0.204,6.338 -0.611,9.735c-0.406,3.398 -1.119,8.576 -2.136,15.534l-25.512,1.526c0.081,-2.035 0.122,-4.964 0.122,-8.789c-0,-15.992 -2.218,-29.562 -6.653,-40.711c-0.529,-1.302 -0.936,-2.675 -1.221,-4.12c-0.285,-1.444 -0.488,-2.166 -0.61,-2.166c-0.163,-0 -0.631,0.956 -1.404,2.868c-0.773,1.913 -1.607,3.886 -2.502,5.921c-0.611,1.424 -1.109,3.052 -1.496,4.883c-0.386,1.831 -0.671,3.885 -0.854,6.164c-0.183,2.279 -0.275,4.964 -0.275,8.057c0,6.266 0.366,14.221 1.099,23.864l-29.968,3.479c-0.489,-3.58 -0.936,-7.141 -1.343,-10.681c-0.407,-3.54 -0.722,-6.825 -0.946,-9.857c-0.224,-3.031 -0.336,-6.297 -0.336,-9.796c0,-1.506 0.081,-3.682 0.244,-6.531l-1.098,-35.583l23.986,-3.052l3.479,4.028c6.429,-2.075 11.678,-3.112 15.747,-3.112c4.517,-0 8.85,1.2 13.001,3.601Z" style="fill:#18e9f0;fill-rule:nonzero;" />
    </g>
    <g>
        <path d="M744.342,122.283c9.358,3.54 14.038,10.091 14.038,19.653c-0,7.609 -2.727,13.57 -8.179,17.884c-2.767,2.156 -5.971,3.712 -9.613,4.669c-3.642,0.956 -8.148,1.434 -13.519,1.434l-56.946,0l-0,-1.953c1.465,-0.407 2.482,-0.936 3.052,-1.587c0.569,-0.651 0.854,-1.607 0.854,-2.869l0,-70.495c0,-1.261 -0.285,-2.218 -0.854,-2.869c-0.57,-0.651 -1.587,-1.18 -3.052,-1.587l-0,-1.953l56.396,0c5.412,0 9.766,0.407 13.062,1.221c3.296,0.814 6.185,2.197 8.667,4.15c4.923,3.866 7.385,9.44 7.385,16.724c-0,8.138 -3.764,13.997 -11.291,17.578Zm-52.124,-6.531l31.921,0c4.842,0 8.219,-0.712 10.132,-2.136c2.156,-1.628 3.235,-4.15 3.235,-7.568c-0,-3.5 -1.018,-5.992 -3.052,-7.477c-2.035,-1.485 -5.473,-2.228 -10.315,-2.228l-31.921,0l-0,19.409Zm-0,36.438l30.883,0c5.738,0 9.868,-0.793 12.39,-2.38c2.889,-1.831 4.334,-4.822 4.334,-8.972c-0,-4.11 -1.445,-7.101 -4.334,-8.972c-2.482,-1.587 -6.612,-2.381 -12.39,-2.381l-30.883,0l-0,22.705Z" style="fill:#fecc05;fill-rule:nonzero;" />
        <path d="M841.082,103.789l-0,36.194c-0,8.26 -1.628,14.323 -4.883,18.189c-5.249,6.144 -15.137,9.216 -29.663,9.216c-9.725,-0 -17.578,-1.485 -23.559,-4.456c-4.313,-2.156 -7.264,-5.228 -8.85,-9.216c-1.465,-3.662 -2.198,-8.24 -2.198,-13.733l0,-36.194c0,-1.261 -0.285,-2.217 -0.854,-2.868c-0.57,-0.651 -1.587,-1.201 -3.052,-1.648l0,-1.709l24.17,-0l-0,1.709c-1.483,0.407 -2.504,0.946 -3.065,1.617c-0.561,0.672 -0.841,1.638 -0.841,2.899l-0,32.898c-0,3.825 0.335,6.755 1.007,8.789c0.671,2.035 1.841,3.703 3.509,5.005c3.337,2.645 8.159,3.967 14.466,3.967c6.307,0 11.128,-1.322 14.465,-3.967c1.627,-1.302 2.767,-2.97 3.418,-5.005c0.651,-2.034 0.976,-4.964 0.976,-8.789l0,-32.898c0,-1.261 -0.274,-2.217 -0.824,-2.868c-0.549,-0.651 -1.576,-1.201 -3.082,-1.648l0,-1.709l22.766,-0l0,1.709c-1.465,0.407 -2.482,0.946 -3.052,1.617c-0.569,0.672 -0.854,1.638 -0.854,2.899Z" style="fill:#fecc05;fill-rule:nonzero;" />
        <path d="M875.933,103.786l-0,55.855c-0,1.26 0.285,2.226 0.854,2.896c0.57,0.671 1.587,1.23 3.052,1.677l0,1.709l-24.17,0l0,-1.709c1.424,-0.366 2.432,-0.895 3.022,-1.587c0.59,-0.692 0.885,-1.668 0.885,-2.93l-0,-55.908c-0,-1.261 -0.285,-2.217 -0.855,-2.868c-0.57,-0.651 -1.587,-1.201 -3.052,-1.648l0,-1.709l24.17,-0l0,1.709c-1.465,0.406 -2.482,0.945 -3.052,1.615c-0.569,0.671 -0.854,1.637 -0.854,2.898Z" style="fill:#fecc05;fill-rule:nonzero;" />
        <path d="M912.127,153.533l38.269,-0c1.302,-0 2.278,-0.28 2.929,-0.841c0.651,-0.561 1.201,-1.583 1.648,-3.065l1.648,-0l0,20.202l-1.648,0c-0.407,-1.465 -0.946,-2.482 -1.617,-3.051c-0.672,-0.57 -1.658,-0.855 -2.96,-0.855l-58.533,0l0,-1.709c1.424,-0.366 2.431,-0.895 3.021,-1.587c0.59,-0.692 0.885,-1.668 0.885,-2.93l0,-55.908c0,-1.261 -0.285,-2.217 -0.854,-2.868c-0.57,-0.651 -1.587,-1.201 -3.052,-1.648l0,-1.709l24.17,-0l-0,1.709c-1.465,0.407 -2.482,0.946 -3.052,1.617c-0.57,0.672 -0.854,1.638 -0.854,2.899l-0,49.744Z" style="fill:#fecc05;fill-rule:nonzero;" />
        <path d="M967.546,159.697l0,-55.908c0,-1.261 -0.284,-2.217 -0.854,-2.868c-0.57,-0.651 -1.587,-1.201 -3.052,-1.648l0,-1.709l40.1,-0c8.342,-0 14.913,1.037 19.714,3.113c6.755,2.929 11.617,7.771 14.588,14.526c2.075,4.72 3.113,10.233 3.113,16.54c-0,11.678 -3.479,20.529 -10.437,26.551c-3.134,2.685 -6.826,4.628 -11.078,5.828c-4.252,1.201 -9.552,1.801 -15.9,1.801l-40.1,0l0,-1.709c1.424,-0.366 2.431,-0.895 3.021,-1.587c0.59,-0.692 0.885,-1.668 0.885,-2.93Zm16.358,-6.164l17.456,-0c8.016,-0 13.834,-1.831 17.456,-5.493c3.784,-3.825 5.676,-9.257 5.676,-16.297c-0,-7.039 -1.892,-12.471 -5.676,-16.296c-1.872,-1.912 -4.191,-3.306 -6.958,-4.181c-2.767,-0.875 -6.267,-1.312 -10.498,-1.312l-17.456,-0l-0,43.579Z" style="fill:#fecc05;fill-rule:nonzero;" />
        <path d="M1071.86,136.87l0,16.663l43.396,-0c1.261,-0 2.228,-0.28 2.899,-0.841c0.672,-0.561 1.211,-1.583 1.618,-3.065l1.709,-0l-0,20.202l-1.709,0c-0.367,-1.424 -0.896,-2.431 -1.587,-3.021c-0.692,-0.59 -1.669,-0.885 -2.93,-0.885l-63.659,0l-0,-1.709c1.424,-0.366 2.431,-0.895 3.021,-1.587c0.59,-0.692 0.885,-1.668 0.885,-2.93l-0,-55.908c-0,-1.261 -0.285,-2.217 -0.855,-2.868c-0.569,-0.651 -1.587,-1.201 -3.051,-1.648l-0,-1.709l61.767,-0c1.302,-0 2.289,-0.285 2.96,-0.855c0.671,-0.569 1.211,-1.587 1.618,-3.051l1.647,-0l0,20.202l-1.647,0c-0.407,-1.482 -0.947,-2.504 -1.618,-3.065c-0.671,-0.561 -1.658,-0.841 -2.96,-0.841l-41.504,-0l0,15.015l25.757,-0c1.261,-0 2.228,-0.285 2.899,-0.855c0.671,-0.57 1.231,-1.587 1.679,-3.052l1.647,0l0,19.715l-1.647,-0c-0.407,-1.443 -0.947,-2.455 -1.618,-3.035c-0.671,-0.581 -1.658,-0.872 -2.96,-0.872l-25.757,0Z" style="fill:#fecc05;fill-rule:nonzero;" />
        <path d="M1152.06,137.847l0,21.8c0,1.259 0.285,2.223 0.855,2.893c0.569,0.67 1.586,1.228 3.051,1.674l0,1.709l-24.17,0l0,-1.709c1.425,-0.366 2.432,-0.895 3.022,-1.587c0.59,-0.692 0.885,-1.668 0.885,-2.93l-0,-55.908c-0,-1.261 -0.285,-2.217 -0.855,-2.868c-0.569,-0.651 -1.587,-1.201 -3.052,-1.648l0,-1.709l44.8,-0c5.819,-0 10.254,0.295 13.306,0.885c3.051,0.59 5.778,1.658 8.178,3.204c4.924,3.215 7.386,8.464 7.386,15.747c-0,5.534 -1.516,9.857 -4.547,12.97c-3.032,3.113 -7.925,5.361 -14.679,6.745l12.939,18.026c2.36,3.329 4.242,5.592 5.646,6.789c1.404,1.198 3.001,1.959 4.791,2.284l0,1.709l-28.747,0l-0,-1.709c2.119,-0.568 3.178,-1.482 3.178,-2.74c0,-0.893 -0.652,-2.253 -1.958,-4.08l-13.655,-19.547l-16.374,-0Zm0,-12.39l24.658,-0c3.744,-0 6.511,-0.407 8.301,-1.221c2.523,-1.098 3.784,-3.275 3.784,-6.531c0,-2.889 -0.885,-4.903 -2.655,-6.042c-1.77,-1.139 -4.913,-1.709 -9.43,-1.709l-24.658,-0l0,15.503Z" style="fill:#fecc05;fill-rule:nonzero;" />
    </g>
</svg>