<svg viewBox="0 0 265 240" version="1.1" xmlns="http://www.w3.org/2000/svg" style="fill-rule:evenodd;clip-rule:evenodd;">
    <g id="Logo-Icon">
        <path d="M51.547,64.059c4.923,-1.627 9.552,-3.133 13.885,-4.516c4.334,-1.384 8.901,-2.696 13.703,-3.937c4.801,-1.241 9.399,-2.228 13.794,-2.96c3.377,-0.57 6.836,-0.855 10.376,-0.855c5.9,0 9.765,0.163 11.596,0.488c2.767,0.529 5.381,1.384 7.843,2.564c2.462,1.18 4.659,2.757 6.592,4.73c1.933,1.973 3.51,4.303 4.73,6.989c0.488,1.098 0.733,2.258 0.733,3.479c-0,4.557 -2.493,10.172 -7.477,16.845c-4.985,6.673 -9.99,12.492 -15.015,17.456c-5.025,4.964 -8.779,8.525 -11.261,10.681l10.987,38.513l-15.992,11.536l-28.015,-80.017c-0.081,0 -0.468,0.387 -1.159,1.16c-0.692,0.773 -1.597,1.78 -2.716,3.021c-1.119,1.241 -1.821,2.004 -2.106,2.289c-0.122,-0 -0.519,-0.875 -1.19,-2.625c-0.672,-1.749 -1.567,-4.181 -2.686,-7.293c-1.119,-3.113 -2.38,-6.572 -3.784,-10.376c-1.404,-3.805 -2.35,-6.195 -2.838,-7.172Zm39.49,16.968l5.004,18.005c2.523,-2.563 5.656,-6.063 9.4,-10.498c3.743,-4.435 5.615,-7.65 5.615,-9.643c0,-0.774 -0.325,-1.221 -0.977,-1.343c-1.831,-0.407 -3.641,-0.611 -5.432,-0.611c-5.371,0 -9.908,1.364 -13.61,4.09Z" style="fill-rule:nonzero;stroke:#000;stroke-width:25px;" />
        <path d="M181.796,80.539l3.479,82.031l-3.724,-0c-2.441,-0 -5.533,-0.082 -9.277,-0.245c-3.743,-0.122 -7.141,-0.376 -10.193,-0.763c-3.051,-0.386 -5.31,-0.885 -6.775,-1.495l-4.028,-78.552l-38.025,0.549l0.55,-24.047l97.472,-6.47l1.526,26.489l-31.005,2.503Z" style="fill-rule:nonzero;stroke:#000;stroke-width:25px;" />
        <path d="M168.307,144.589c9.359,3.54 14.038,10.091 14.038,19.653c-0,7.609 -2.726,13.57 -8.179,17.883c-2.767,2.157 -5.971,3.713 -9.613,4.669c-3.642,0.957 -8.148,1.435 -13.519,1.435l-56.946,-0l0,-1.953c1.465,-0.407 2.482,-0.936 3.052,-1.587c0.57,-0.651 0.855,-1.607 0.855,-2.869l-0,-70.495c-0,-1.262 -0.285,-2.218 -0.855,-2.869c-0.57,-0.651 -1.587,-1.18 -3.052,-1.587l0,-1.953l56.397,0c5.411,0 9.765,0.407 13.061,1.221c3.296,0.814 6.185,2.197 8.667,4.15c4.924,3.866 7.385,9.44 7.385,16.724c0,8.138 -3.763,13.997 -11.291,17.578Zm-52.124,29.907l30.884,-0c5.737,-0 9.867,-0.794 12.39,-2.38c2.889,-1.831 4.333,-4.822 4.333,-8.973c0,-4.109 -1.444,-7.1 -4.333,-8.972c-2.482,-1.587 -6.612,-2.38 -12.39,-2.38l-30.884,-0l0,22.705Zm0,-36.438l31.921,0c4.842,0 8.22,-0.712 10.132,-2.136c2.157,-1.628 3.235,-4.151 3.235,-7.568c-0,-3.5 -1.017,-5.992 -3.052,-7.477c-2.034,-1.485 -5.473,-2.228 -10.315,-2.228l-31.921,-0l0,19.409Z" style="fill-rule:nonzero;stroke:#000;stroke-width:25px;" />
        <path d="M51.547,64.059c4.923,-1.627 9.552,-3.133 13.885,-4.516c4.334,-1.384 8.901,-2.696 13.703,-3.937c4.801,-1.241 9.399,-2.228 13.794,-2.96c3.377,-0.57 6.836,-0.855 10.376,-0.855c5.9,0 9.765,0.163 11.596,0.488c2.767,0.529 5.381,1.384 7.843,2.564c2.462,1.18 4.659,2.757 6.592,4.73c1.933,1.973 3.51,4.303 4.73,6.989c0.488,1.098 0.733,2.258 0.733,3.479c-0,4.557 -2.493,10.172 -7.477,16.845c-4.985,6.673 -9.99,12.492 -15.015,17.456c-5.025,4.964 -8.779,8.525 -11.261,10.681l10.987,38.513l-15.992,11.536l-28.015,-80.017c-0.081,0 -0.468,0.387 -1.159,1.16c-0.692,0.773 -1.597,1.78 -2.716,3.021c-1.119,1.241 -1.821,2.004 -2.106,2.289c-0.122,-0 -0.519,-0.875 -1.19,-2.625c-0.672,-1.749 -1.567,-4.181 -2.686,-7.293c-1.119,-3.113 -2.38,-6.572 -3.784,-10.376c-1.404,-3.805 -2.35,-6.195 -2.838,-7.172Zm39.49,16.968l5.004,18.005c2.523,-2.563 5.656,-6.063 9.4,-10.498c3.743,-4.435 5.615,-7.65 5.615,-9.643c0,-0.774 -0.325,-1.221 -0.977,-1.343c-1.831,-0.407 -3.641,-0.611 -5.432,-0.611c-5.371,0 -9.908,1.364 -13.61,4.09Z" style="fill:#f000a2;fill-rule:nonzero;" />
        <path d="M181.796,80.539l3.479,82.031l-3.724,-0c-2.441,-0 -5.533,-0.082 -9.277,-0.245c-3.743,-0.122 -7.141,-0.376 -10.193,-0.763c-3.051,-0.386 -5.31,-0.885 -6.775,-1.495l-4.028,-78.552l-38.025,0.549l0.55,-24.047l97.472,-6.47l1.526,26.489l-31.005,2.503Z" style="fill:#18e9f0;fill-rule:nonzero;" />
        <path d="M168.307,144.589c9.359,3.54 14.038,10.091 14.038,19.653c-0,7.609 -2.726,13.57 -8.179,17.883c-2.767,2.157 -5.971,3.713 -9.613,4.669c-3.642,0.957 -8.148,1.435 -13.519,1.435l-56.946,-0l0,-1.953c1.465,-0.407 2.482,-0.936 3.052,-1.587c0.57,-0.651 0.855,-1.607 0.855,-2.869l-0,-70.495c-0,-1.262 -0.285,-2.218 -0.855,-2.869c-0.57,-0.651 -1.587,-1.18 -3.052,-1.587l0,-1.953l56.397,0c5.411,0 9.765,0.407 13.061,1.221c3.296,0.814 6.185,2.197 8.667,4.15c4.924,3.866 7.385,9.44 7.385,16.724c0,8.138 -3.763,13.997 -11.291,17.578Zm-52.124,-6.531l31.921,0c4.842,0 8.22,-0.712 10.132,-2.136c2.157,-1.628 3.235,-4.151 3.235,-7.568c-0,-3.5 -1.017,-5.992 -3.052,-7.477c-2.034,-1.485 -5.473,-2.228 -10.315,-2.228l-31.921,-0l0,19.409Zm0,36.438l30.884,-0c5.737,-0 9.867,-0.794 12.39,-2.38c2.889,-1.831 4.333,-4.822 4.333,-8.973c0,-4.109 -1.444,-7.1 -4.333,-8.972c-2.482,-1.587 -6.612,-2.38 -12.39,-2.38l-30.884,-0l0,22.705Z" style="fill:#fecc05;fill-rule:nonzero;" />
    </g>
</svg>